<svg width="268" height="565" viewBox="0 0 268 565" xmlns="http://www.w3.org/2000/svg" xmlns:xlink="http://www.w3.org/1999/xlink"><defs><path d="M95.5 8c0 5.523 4.477 10 10 10h34c5.523 0 10-4.477 10-10V0h60.106c12.48 0 17.007 1.3 21.57 3.74 4.563 2.44 8.144 6.021 10.584 10.584 2.44 4.563 3.74 9.09 3.74 21.57v457.212c0 12.48-1.3 17.007-3.74 21.57-2.44 4.563-6.021 8.144-10.584 10.584-4.563 2.44-9.09 3.74-21.57 3.74H36.394c-12.48 0-17.007-1.3-21.57-3.74-4.563-2.44-8.144-6.021-10.584-10.584-2.403-4.493-3.7-8.95-3.74-21V35.894c0-12.48 1.3-17.007 3.74-21.57C6.68 9.761 10.26 6.18 14.824 3.74c4.493-2.403 8.95-3.7 21-3.74H95.5z" id="path-1"/></defs><g id="404" stroke="none" stroke-width="1" fill="none" fill-rule="evenodd"><g transform="translate(-266 -230)" id="Group-2"><g transform="translate(266 230)" id="Handset"><path d="M266 521.414c0 15.156-1.578 20.652-4.541 26.192-2.963 5.541-7.312 9.89-12.853 12.853-5.54 2.963-11.036 4.541-26.192 4.541H43.586c-15.156 0-20.652-1.578-26.192-4.541-5.541-2.963-9.89-7.312-12.853-12.853-2.923-5.465-4.498-10.888-4.54-25.583L0 43.586C0 28.43 1.578 22.934 4.541 17.394c2.963-5.541 7.312-9.89 12.853-12.853C22.859 1.618 28.282.043 42.977.001L222.414 0c15.156 0 20.652 1.578 26.192 4.541 5.541 2.963 9.89 7.312 12.853 12.853C264.422 22.934 266 28.43 266 43.586V91h2v74h-2v38h2v34h-2v284.414z" id="Frame" fill="#231F20"/><g id="Dial-Pad" transform="translate(10.5 10)"><mask id="mask-2" fill="#fff"><use xlink:href="#path-1"/></mask><use id="Mask" fill="#F0F0F0" xlink:href="#path-1"/><g mask="url(#mask-2)"><g transform="translate(0 164.5)"><path d="M0 0h246.667v281H0V0zm245.666 211h-80.667v69h80.667v-69zm-82 0H82.999v69h80.667v-69zm-82 0H.999v69h80.667v-69zm164-70h-80.667v69h80.667v-69zm-82 0H82.999v69h80.667v-69zm-82 0H.999v69h80.667v-69zm164-70h-80.667v69h80.667V71zm-82 0H82.999v69h80.667V71zm-82 0H.999v69h80.667V71zm164-70h-80.667v69h80.667V1zm-82 0H82.999v69h80.667V1zm-82 0H.999v69h80.667V1z" id="Combined-Shape" stroke="none" fill="#D6D4D4" fill-rule="nonzero"/><path d="M200.12 255.5l1.334-6.293h6.468l-1.334 6.293h1.942l1.334-6.293h4.582v-1.856h-4.175l1.073-5.017h4.668v-1.856h-4.262l1.363-6.438h-1.944l-1.363 6.438h-6.467l1.363-6.438h-1.913l-1.363 6.438h-4.872v1.856h4.465l-1.073 5.017h-4.958v1.856h4.553l-1.334 6.293h1.913zm8.207-8.149h-6.466l1.073-5.017h6.466l-1.073 5.017z" id="#" stroke="none" fill="#3B3B3B" fill-rule="nonzero"/><path d="M123.514 255.616c2.61 0 4.438-.914 5.481-2.74 1.044-1.828 1.566-4.394 1.566-7.7 0-3.287-.522-5.839-1.566-7.656-1.044-1.817-2.87-2.726-5.48-2.726-2.63 0-4.462.909-5.496 2.726-1.034 1.817-1.552 4.37-1.552 7.656 0 3.306.518 5.873 1.552 7.7 1.034 1.826 2.866 2.74 5.495 2.74zm0-1.914c-1.372 0-2.426-.358-3.16-1.073-.735-.715-1.233-1.687-1.494-2.915-.261-1.227-.391-2.74-.391-4.538 0-1.779.13-3.277.391-4.495s.759-2.185 1.493-2.9c.735-.715 1.789-1.073 3.162-1.073 1.353 0 2.397.358 3.132 1.073.734.715 1.232 1.682 1.493 2.9.261 1.218.392 2.716.392 4.495 0 1.798-.131 3.31-.392 4.538-.261 1.228-.759 2.2-1.493 2.915-.735.715-1.78 1.073-3.133 1.073z" id="0" stroke="none" fill="#3B3B3B" fill-rule="nonzero"/><path d="M30 245h24m-17.538-9.545l11.076 19.09m0-19.09l-11.076 19.09" id="Combined-Shape" stroke="#3B3B3B" stroke-width="1.846" fill="none" stroke-linecap="square"/><path d="M205.297 185.732c2.61 0 4.48-.942 5.612-2.827 1.13-1.886 1.696-4.607 1.696-8.164 0-3.132-.541-5.597-1.624-7.395-1.083-1.798-3.084-2.697-6.003-2.697-1.527 0-2.799.304-3.814.913-1.014.61-1.764 1.426-2.247 2.451-.483 1.025-.725 2.165-.725 3.422 0 2.185.58 3.896 1.74 5.133 1.16 1.237 2.765 1.856 4.814 1.856 1.508 0 2.818-.377 3.93-1.131 1.111-.754 1.802-1.76 2.073-3.016.02.27.029.667.029 1.189 0 2.997-.46 5.177-1.377 6.54-.919 1.363-2.287 2.044-4.104 2.044-1.295 0-2.31-.363-3.045-1.088-.735-.724-1.199-1.754-1.392-3.088h-1.914c.174 1.76.802 3.175 1.885 4.249 1.083 1.073 2.571 1.609 4.466 1.609zm-.145-8.932c-1.566 0-2.798-.46-3.697-1.377-.9-.919-1.349-2.238-1.349-3.959 0-1.585.45-2.823 1.349-3.712.898-.89 2.092-1.334 3.581-1.334 1.817 0 3.18.536 4.089 1.61.909 1.073 1.363 2.373 1.363 3.9 0 1.063-.256 1.962-.768 2.697a4.663 4.663 0 01-2.001 1.638 6.365 6.365 0 01-2.567.537z" id="9" stroke="none" fill="#3B3B3B" fill-rule="nonzero"/><path d="M123.5 186.138c2.281 0 4.094-.546 5.438-1.638 1.343-1.093 2.015-2.586 2.015-4.481 0-1.373-.396-2.518-1.189-3.436-.793-.919-1.895-1.542-3.306-1.871 1.334-.348 2.325-.942 2.972-1.783.648-.841.972-1.842.972-3.002 0-1.025-.27-1.943-.812-2.755-.541-.812-1.33-1.45-2.364-1.914-1.034-.464-2.276-.696-3.726-.696-1.43 0-2.668.232-3.712.696-1.044.464-1.837 1.102-2.378 1.914-.541.812-.812 1.73-.812 2.755 0 1.16.324 2.16.972 3.002.647.84 1.638 1.435 2.972 1.783-1.411.329-2.513.952-3.306 1.87-.793.919-1.189 2.064-1.189 3.437 0 1.895.677 3.388 2.03 4.48 1.353 1.093 3.161 1.639 5.423 1.639zm0-12.006c-1.508 0-2.697-.343-3.567-1.03-.87-.686-1.305-1.657-1.305-2.914 0-1.257.445-2.228 1.334-2.914.89-.687 2.069-1.03 3.538-1.03 1.489 0 2.673.343 3.552 1.03.88.686 1.32 1.657 1.32 2.914 0 1.257-.435 2.228-1.305 2.915-.87.686-2.059 1.029-3.567 1.029zm0 10.295c-1.663 0-2.987-.396-3.973-1.189-.986-.793-1.479-1.895-1.479-3.306 0-1.45.512-2.537 1.537-3.262 1.025-.725 2.33-1.088 3.915-1.088s2.89.363 3.915 1.088c1.025.725 1.537 1.812 1.537 3.262 0 1.411-.493 2.513-1.479 3.306-.986.793-2.31 1.189-3.973 1.189z" id="8" stroke="none" fill="#3B3B3B" fill-rule="nonzero"/><path id="7" stroke="none" fill="#3B3B3B" fill-rule="nonzero" d="M40.007 185.5l7.858-18.937v-1.566h-13.31v1.769h11.252L37.86 185.5z"/><path d="M206.036 115.703c1.528 0 2.804-.31 3.828-.928 1.025-.619 1.78-1.44 2.262-2.465.484-1.025.725-2.165.725-3.422 0-2.185-.58-3.89-1.74-5.119-1.16-1.227-2.774-1.841-4.843-1.841-1.507 0-2.813.372-3.915 1.117-1.102.744-1.788 1.754-2.059 3.03a20.78 20.78 0 01-.029-1.276c0-2.958.47-5.114 1.407-6.467.938-1.353 2.296-2.03 4.075-2.03 1.295 0 2.31.362 3.044 1.087.735.726 1.19 1.745 1.364 3.06h1.942c-.193-1.74-.811-3.147-1.856-4.22-1.044-1.073-2.503-1.609-4.379-1.609-2.629 0-4.523.923-5.683 2.77-1.16 1.846-1.74 4.557-1.74 8.134 0 3.132.536 5.611 1.609 7.439 1.073 1.827 3.07 2.74 5.988 2.74zm-.058-1.769c-1.237 0-2.262-.256-3.073-.769a4.67 4.67 0 01-1.798-2.03 6.413 6.413 0 01-.58-2.711c0-1.063.26-1.958.783-2.683a4.928 4.928 0 012-1.638 6.123 6.123 0 012.553-.551c1.566 0 2.798.454 3.697 1.363s1.349 2.223 1.349 3.944c0 1.585-.45 2.828-1.349 3.727-.899.898-2.093 1.348-3.582 1.348z" id="6" stroke="none" fill="#3B3B3B" fill-rule="nonzero"/><path d="M123.95 115.645c2.28 0 4.001-.667 5.162-2.001 1.16-1.334 1.74-3.035 1.74-5.104 0-1.895-.537-3.47-1.61-4.727-1.073-1.257-2.702-1.885-4.886-1.885a7.69 7.69 0 00-3.132.638c-.967.425-1.712.986-2.234 1.682v-7.569h10.847v-1.798h-12.731v11.31h1.972a4.775 4.775 0 011.928-1.914c.841-.464 1.813-.696 2.915-.696 1.585 0 2.803.435 3.653 1.305.851.87 1.277 2.078 1.277 3.625 0 1.605-.421 2.895-1.262 3.871-.841.977-2.093 1.465-3.755 1.465-1.315 0-2.407-.367-3.278-1.102-.87-.735-1.43-1.779-1.681-3.132h-2.001c.193 1.856.923 3.325 2.189 4.408 1.266 1.083 2.895 1.624 4.886 1.624z" id="5" stroke="none" fill="#3B3B3B" fill-rule="nonzero"/><path d="M46.474 115.5v-4.93h3.19v-1.798h-3.19V94.968h-2.175l-10.788 13.92v1.682h10.903v4.93h2.06zm-1.914-6.728h-8.875l8.874-11.281v11.281z" id="4" stroke="none" fill="#3B3B3B" fill-rule="nonzero"/><path d="M205.746 45.703c2.088 0 3.679-.522 4.771-1.566s1.638-2.397 1.638-4.06c0-1.45-.44-2.586-1.319-3.407-.88-.822-2.093-1.426-3.64-1.813v-.174c1.547-.155 2.697-.677 3.452-1.566.754-.89 1.13-1.972 1.13-3.248 0-1.005-.236-1.904-.71-2.697-.474-.793-1.165-1.416-2.074-1.87-.908-.455-2.01-.682-3.305-.682-2.05 0-3.674.527-4.873 1.58-1.198 1.054-1.875 2.528-2.03 4.423h2.001c.174-1.43.706-2.504 1.595-3.219.89-.715 1.972-1.073 3.249-1.073 1.295 0 2.31.338 3.044 1.015.735.677 1.102 1.585 1.102 2.726 0 2.61-1.962 3.915-5.886 3.915h-.638v1.711h.638c1.99 0 3.533.362 4.625 1.087 1.092.726 1.639 1.784 1.639 3.176 0 1.18-.382 2.136-1.146 2.871-.764.735-1.87 1.102-3.32 1.102-1.49 0-2.683-.41-3.582-1.232-.899-.822-1.455-1.92-1.667-3.292h-2.001c.25 2.05 1.014 3.61 2.29 4.684 1.276 1.072 2.949 1.609 5.017 1.609z" id="3" stroke="none" fill="#3B3B3B" fill-rule="nonzero"/><path d="M130.475 45.413v-1.682h-10.991c1.643-.986 3.257-2.19 4.843-3.61 1.585-1.422 2.91-2.968 3.972-4.64 1.064-1.673 1.595-3.311 1.595-4.916 0-1.895-.56-3.335-1.681-4.321-1.122-.986-2.591-1.479-4.408-1.479-1.992 0-3.606.604-4.844 1.813-1.237 1.208-1.923 2.924-2.058 5.147h2c.097-1.605.537-2.876 1.32-3.814.783-.937 1.928-1.406 3.436-1.406 1.47 0 2.533.392 3.19 1.175.658.782.986 1.802.986 3.059 0 1.991-1.02 4.128-3.059 6.409-2.04 2.281-4.77 4.553-8.192 6.815v1.45h13.89z" id="2" stroke="none" fill="#3B3B3B" fill-rule="nonzero"/><path id="1" stroke="none" fill="#3B3B3B" fill-rule="nonzero" d="M43.197 45.5V25.055h-5.192v1.885h3.075V45.5z"/></g></g></g><g id="Call-Button" transform="translate(112 475)"><g id="Container/Rounded-Rectangle" fill="#61D395"><rect id="🎨-Container-BG" x="0" y="0" width="44" height="44" rx="22"/></g><g id="Icon/Rocket" transform="translate(14 14)" stroke="#FFF"><path d="M11.137 15.752a5.304 5.304 0 01-3.695-1.373 5.636 5.636 0 00-.178-.146c-.025-.02-2.998-2.514-5.022-4.747C.006 6.98-.061 3.584 1.164 1.75A3.203 3.203 0 013.854.246c.609 0 1.08.519 1.261 1.002l.9 2.882a1.61 1.61 0 01-.357 1.533l-.799.797c-.175.176-.254.535-.183.674.174.349.598 1.004 1.626 2.144a10.396 10.396 0 002.622 2.042c.06.03.126.042.192.034a.984.984 0 00.492-.187l.885-.834a1.388 1.388 0 011.01-.362c.18.01.358.048.527.114l2.888 1.282c.545.264.826.876.67 1.46-.328.935-1.259 2.54-3.799 2.871-.211.042-.426.06-.64.054h-.012z" id="path"/><path d="M8.788 4.092c.915-.013 1.673.282 2.275.884.602.602.9 1.364.894 2.284M8.462 2.375c1.643-.055 2.935.387 3.876 1.328.94.94 1.383 2.232 1.327 3.875M8.369.369c2.077-.015 3.818.68 5.224 2.087 1.406 1.406 2.102 3.147 2.087 5.224" id="highlight"/></g></g><path d="M122.716 135v-.928h-4.88v-4.304h4.4v-.88h-4.4v-4.256h4.88v-.912H116.7V135h6.016zm3.088 0v-4.784c0-1.024.277-1.763.832-2.216.555-.453 1.253-.68 2.096-.68h.368v-1.216c-.81 0-1.499.17-2.064.512a2.951 2.951 0 00-1.232 1.456v-1.808h-1.136V135h1.136zm5.92 0v-4.784c0-1.024.277-1.763.832-2.216.555-.453 1.253-.68 2.096-.68h.368v-1.216c-.81 0-1.499.17-2.064.512a2.951 2.951 0 00-1.232 1.456v-1.808h-1.136V135h1.136zm8.736.112c.832 0 1.576-.181 2.232-.544a3.895 3.895 0 001.544-1.552c.373-.672.56-1.467.56-2.384 0-.917-.187-1.715-.56-2.392a3.829 3.829 0 00-1.544-1.552c-.656-.357-1.4-.536-2.232-.536-.832 0-1.579.179-2.24.536a3.867 3.867 0 00-1.56 1.552c-.379.677-.568 1.475-.568 2.392 0 .907.19 1.699.568 2.376a3.92 3.92 0 001.56 1.56c.661.363 1.408.544 2.24.544zm0-.992c-.576 0-1.11-.128-1.6-.384s-.885-.645-1.184-1.168c-.299-.523-.448-1.168-.448-1.936s.15-1.416.448-1.944c.299-.528.693-.92 1.184-1.176a3.407 3.407 0 011.6-.384c.565 0 1.09.128 1.576.384.485.256.877.648 1.176 1.176.299.528.448 1.176.448 1.944s-.15 1.413-.448 1.936c-.299.523-.69.912-1.176 1.168a3.327 3.327 0 01-1.576.384zm7.488.88v-4.784c0-1.024.277-1.763.832-2.216.555-.453 1.253-.68 2.096-.68h.368v-1.216c-.81 0-1.499.17-2.064.512a2.951 2.951 0 00-1.232 1.456v-1.808h-1.136V135h1.136z" id="Error" fill="#3B3B3B" fill-rule="nonzero"/><path d="M112.596 101v-8.16h5.28v-2.976h-5.28V67.016h-3.6L91.14 90.056v2.784h18.048V101h3.408zm-3.168-11.136H94.74l14.688-18.672v18.672zm24.096 11.328c4.32 0 7.344-1.512 9.072-4.536 1.728-3.024 2.592-7.272 2.592-12.744 0-5.44-.864-9.664-2.592-12.672-1.728-3.008-4.752-4.512-9.072-4.512-4.352 0-7.384 1.504-9.096 4.512-1.712 3.008-2.568 7.232-2.568 12.672 0 5.472.856 9.72 2.568 12.744 1.712 3.024 4.744 4.536 9.096 4.536zm0-3.168c-2.272 0-4.016-.592-5.232-1.776-1.216-1.184-2.04-2.792-2.472-4.824-.432-2.032-.648-4.536-.648-7.512 0-2.944.216-5.424.648-7.44.432-2.016 1.256-3.616 2.472-4.8 1.216-1.184 2.96-1.776 5.232-1.776 2.24 0 3.968.592 5.184 1.776 1.216 1.184 2.04 2.784 2.472 4.8.432 2.016.648 4.496.648 7.44 0 2.976-.216 5.48-.648 7.512-.432 2.032-1.256 3.64-2.472 4.824-1.216 1.184-2.944 1.776-5.184 1.776zM170.868 101v-8.16h5.28v-2.976h-5.28V67.016h-3.6l-17.856 23.04v2.784h18.048V101h3.408zM167.7 89.864h-14.688L167.7 71.192v18.672z" id="404" fill="#3B3B3B" fill-rule="nonzero"/><path d="M106 10v8c0 5.43 4.327 9.848 9.72 9.996L116 28h34c5.43 0 9.848-4.327 9.996-9.72L160 18v-8h44.571L96.612 539H46.894c-12.48 0-17.007-1.3-21.57-3.74-4.563-2.44-8.144-6.021-10.584-10.584-2.403-4.493-3.7-8.95-3.74-21V45.894c0-12.48 1.3-17.007 3.74-21.57 2.44-4.563 6.021-8.144 10.584-10.584 4.493-2.403 8.95-3.7 21-3.74H106z" id="Screen-Glare" fill="#FFF" opacity=".254"/><path d="M124 12a5 5 0 110 10 5 5 0 010-10zm18 0a5 5 0 110 10 5 5 0 010-10z" id="Camera" fill="#3B3B3B"/></g></g></g></svg>